<svg xmlns="http://www.w3.org/2000/svg" width="510.236" height="510.236" xml:space="preserve"><path fill="#D50000" d="M.882.001h510.236v510.235H.882z"/><g fill="#FFF"><path d="M92.147 335.951c12.265-14.67 13.708-29.819 4.208-57.958-6.014-17.799-15.994-31.508-8.659-42.568 7.817-11.785 24.411-.361 10.583 15.391l2.765 1.925c16.595 1.924 24.772-20.804 12.387-27.296-32.708-17.076-61.328 15.752-48.702 53.751 5.411 16.112 12.987 33.189 6.854 46.777-5.291 11.664-15.512 18.519-22.366 18.758-14.31.722-4.811-32.105 11.664-40.282 1.441-.723 3.486-1.685 1.563-4.09-20.323-2.284-32.228 7.095-39.082 20.202-19.961 38.12 37.88 52.187 68.785 15.39zM449.289 223.881c4.689 11.544 11.785 22.967 7.576 33.067-3.485 8.657-8.058 12.266-13.106 13.107-7.096 1.202-5.171-21.045 6.974-27.657 1.083-.604 2.647-3.487 1.203-5.173-15.391-.841-24.049 6.494-28.739 16.235-13.59 28.498 30.783 36.313 52.549 8.298 8.658-11.186 9.02-22.247.722-42.328-5.289-12.748-13.348-22.247-8.297-30.665 5.412-8.898 18.398-1.202 8.659 10.702l2.162 1.201c12.628.723 17.798-16.112 8.179-20.319-25.375-10.822-49.066 16.475-37.882 43.532z"/><path d="M288.635 193.455c-8.778-6.974-33.43 4.691-40.403 22.008-8.778 22.006-21.767 54.11-34.513 68.182-13.468 14.79-14.79 3.367-13.468-5.171 3.127-20.083 22.728-66.618 33.429-79.727-3.968-5.894-29.941-5.051-47.979 22.969-6.735 10.581-22.127 45.813-39.202 73.592-3.728 6.013-8.418 1.804-4.811-12.266 4.089-16.233 16.114-60.847 31.627-95.959 40.645-8.059 83.813-13.709 116.881-13.829 4.45-1.202 7.456-5.17 0-5.411-28.498-.961-71.308 2.403-111.351 7.454 7.695-15.391 15.992-27.656 24.41-32.826-9.139-5.771-27.657-3.487-38.239 12.146-4.69 6.975-9.379 15.393-13.829 24.532-29.341 4.568-54.474 9.738-67.22 14.549-13.229 5.051-11.785 21.044-3.729 18.037 16.716-6.253 39.322-12.746 64.454-18.518-15.993 36.074-28.498 78.643-31.505 95.96-7.456 42.087 18.639 41.847 31.386 25.253 13.829-18.159 42.688-82.013 47.137-88.746 1.323-2.285 3.126-1.082 2.165.964-32.227 64.332-29.461 89.225-3.366 83.692 11.783-2.526 32.106-22.728 37.397-33.189 1.082-2.526 3.365-2.284 2.886-1.202-20.441 53.03-46.417 95.959-63.854 109.427-15.872 12.146-27.658-14.188 28.5-51.946 8.297-5.652 4.449-13.349-4.93-10.702-28.98 4.567-111.954 30.902-148.39 56.155-2.766 1.926-5.291 3.487-5.169 7.456.119 2.285 4.088 1.442 6.012.24 47.14-28.258 85.738-39.321 129.99-48.581.602.241 1.323.359 1.925.121 2.044-.481 1.925.601.602 1.441-3.006 1.685-6.014 3.247-6.735 3.487-29.822 11.664-47.858 37.397-41.486 50.505 5.411 11.304 34.634 7.216 48.462-.24 33.909-18.396 58.562-54.474 75.396-104.257 14.673-44.131 33.19-94.155 37.52-95.6zM485.724 295.308c-55.193-7.214-174.242 2.405-226.793 16.354-15.632 4.087-11.302 12.385-3.365 10.822.12 0 3.487-.843 3.607-.843 43.169-8.416 147.908-15.753 208.993-4.088 7.339 1.323 29.344-20.682 17.558-22.245zM304.027 288.814c15.393-7.695 38.239-55.314 53.271-81.408 1.081-1.925 3.006-.361 1.923.962-37.998 65.416-21.886 72.991-6.854 72.03 20.082-1.203 38.603-30.063 42.689-36.557 1.683-2.526 2.644-.482 1.683 1.321-.962 3.007-4.447 8.298-7.693 15.514-4.57 10.221.238 14.188 4.208 15.991 6.252 3.008 23.327 1.082 25.974-9.379-17.075-.358 23.811-80.929 28.019-85.857-11.425-6.613-29.101.601-37.156 16.474-17.195 34.031-31.626 61.449-40.646 61.931-17.557.961 20.204-75.88 26.335-78.282-3.726-5.412-27.657-3.129-41.005 17.555-4.811 7.456-34.15 59.404-41.365 67.941-12.748 15.151-13.709 2.165-10.102-12.986 1.201-5.171 3.247-11.784 5.893-19.12 8.417-18.999 17.438-25.012 22.969-31.145 37.156-41.244 58.439-74.676 50.022-87.782-7.454-11.663-32.348-6.493-48.341 17.557-29.462 44.132-56.638 104.617-60.124 132.273-3.371 27.657 16.711 29.702 30.3 22.967zm15.632-80.928c1.322-3.006 2.165-3.848 4.45-8.897 13.228-29.1 29.82-59.764 41.244-74.074 7.096-7.454 17.076 2.646-.962 30.304-10.582 16.354-22.606 31.387-35.714 44.612v.12c-3.366 3.729-6.373 6.855-7.696 8.658-.961 1.203-2.042.961-1.322-.723zM266.195 369.054c0 .899-.194 1.755-.585 2.564a6.804 6.804 0 0 1-1.635 2.146 8.104 8.104 0 0 1-2.49 1.484c-.96.37-2.021.556-3.18.556-1.041 0-1.976-.061-2.805-.181-.83-.119-1.61-.31-2.34-.569s-1.43-.595-2.1-1.005a19.94 19.94 0 0 1-2.085-1.485l3.3-3.33c.96.8 1.9 1.365 2.82 1.695.919.33 1.92.495 3 .495.44 0 .855-.065 1.246-.195a3.52 3.52 0 0 0 1.02-.525c.289-.22.52-.479.689-.779.17-.301.256-.63.256-.99 0-.38-.07-.72-.211-1.021-.14-.3-.389-.589-.75-.869-.359-.28-.859-.565-1.5-.855-.64-.29-1.459-.615-2.459-.975a22.887 22.887 0 0 1-2.535-1.096 8.847 8.847 0 0 1-2.13-1.484 6.833 6.833 0 0 1-1.47-2.04c-.371-.78-.555-1.7-.555-2.76 0-1.021.205-1.96.615-2.82.41-.859.97-1.595 1.68-2.205s1.54-1.085 2.49-1.425a9.06 9.06 0 0 1 3.075-.511c1.84 0 3.39.24 4.65.721 1.26.479 2.379 1.18 3.359 2.1l-3.24 3.271a6.475 6.475 0 0 0-2.01-1.335c-.74-.311-1.61-.466-2.609-.466-.461 0-.886.07-1.275.21a3.35 3.35 0 0 0-1.005.556c-.28.229-.505.5-.675.81-.17.311-.255.636-.255.976 0 .38.08.725.24 1.034.16.311.43.61.81.9.379.29.885.58 1.515.87s1.415.605 2.354.945c1.2.42 2.23.88 3.09 1.38.86.5 1.561 1.05 2.101 1.649.54.601.94 1.275 1.2 2.025s.389 1.593.389 2.534zM294.515 351.354v13.02c0 1.601-.24 3.091-.72 4.471s-1.176 2.585-2.086 3.615-2.02 1.84-3.33 2.43c-1.31.59-2.805.885-4.484.885-1.641 0-3.12-.29-4.439-.87a9.986 9.986 0 0 1-3.375-2.385c-.931-1.01-1.646-2.2-2.146-3.57-.501-1.369-.75-2.845-.75-4.425v-13.17h4.649v13.2c0 .92.131 1.785.391 2.595.26.811.64 1.515 1.14 2.115.5.6 1.125 1.075 1.875 1.425.75.351 1.604.525 2.565.525 1.02 0 1.904-.165 2.654-.495s1.37-.79 1.86-1.38c.489-.59.86-1.285 1.11-2.085s.375-1.681.375-2.641v-13.26h4.711zM319.235 359.424c0 1.14-.217 2.205-.647 3.194a8.137 8.137 0 0 1-1.759 2.58 8 8 0 0 1-2.616 1.71 8.341 8.341 0 0 1-3.188.615h-3.97v7.83h-4.649v-23.97h8.625c1.121 0 2.184.205 3.186.614a8.152 8.152 0 0 1 2.615 1.695c.74.72 1.326 1.57 1.758 2.55.428.982.645 2.041.645 3.182zm-4.65-.061a4.427 4.427 0 0 0-1.29-3.149c-.4-.4-.87-.721-1.41-.96-.54-.24-1.12-.36-1.739-.36h-3.091v9.06h3.091c.619 0 1.199-.124 1.739-.375a4.573 4.573 0 0 0 1.41-1.005c.399-.42.715-.904.944-1.455.23-.551.346-1.136.346-1.756zM344.225 375.354h-5.121l-1.706-5.46a8.785 8.785 0 0 0-.673-1.65 5.127 5.127 0 0 0-.973-1.29 4.03 4.03 0 0 0-1.361-.84c-.529-.199-1.152-.3-1.871-.3h-1.735v9.54h-4.591v-23.97l9.464-.03c1.019 0 1.966.176 2.845.525s1.637.835 2.275 1.455 1.139 1.35 1.498 2.189c.358.84.539 1.75.539 2.73 0 .7-.11 1.38-.328 2.04a6.9 6.9 0 0 1-.924 1.829 7.092 7.092 0 0 1-1.416 1.485 5.967 5.967 0 0 1-1.803.976c.755.28 1.371.685 1.848 1.215.478.53.855 1.165 1.133 1.904.139.341.269.681.388 1.021l.372 1.064c.13.371.27.771.418 1.2l.492 1.425c.22.66.424 1.226.615 1.695.19.472.395.886.615 1.247zm-6.06-16.77c0-.561-.105-1.07-.314-1.53a3.841 3.841 0 0 0-.855-1.2 3.89 3.89 0 0 0-1.275-.795 4.342 4.342 0 0 0-1.574-.285h-3.36v7.47h3.36c.559 0 1.084-.085 1.574-.255s.915-.415 1.275-.734c.359-.32.645-.705.855-1.155a3.58 3.58 0 0 0 .314-1.516zM366.934 375.354h-15.84v-23.97h15.84v3.84h-11.28v5.729h11.13v3.75h-11.13v6.601h11.28v4.05zM398.464 375.354h-4.56v-16.02l-7.56 12.75-7.26-12.87v16.14h-4.561v-24h5.25l6.66 11.91 6.96-11.91h5.069v24zM431.164 375.354h-5.101l-2.219-4.8h-11.641l-2.25 4.8h-5.1l11.34-24h3.63l11.341 24zm-9.15-8.67-3.99-8.64-4.051 8.64h8.041zM457.534 371.033a13.3 13.3 0 0 1-4.365 3.48c-1.709.859-3.595 1.29-5.654 1.29-1.78 0-3.45-.325-5.01-.976-1.561-.649-2.918-1.534-4.072-2.654s-2.064-2.435-2.729-3.945c-.665-1.51-.999-3.135-.999-4.875s.334-3.364.999-4.875c.665-1.51 1.575-2.83 2.729-3.96s2.512-2.015 4.072-2.655c1.56-.64 3.229-.96 5.01-.96 2.06 0 3.945.431 5.654 1.29 1.711.86 3.136 1.98 4.275 3.36l-3.21 3.3a8.42 8.42 0 0 0-2.864-2.565c-1.17-.649-2.456-.975-3.855-.975a7.835 7.835 0 0 0-3.165.646 8.465 8.465 0 0 0-2.595 1.739 8.236 8.236 0 0 0-1.756 2.55 7.582 7.582 0 0 0-.645 3.105c0 1.08.215 2.105.645 3.075s1.016 1.82 1.756 2.55a8.408 8.408 0 0 0 2.595 1.74c.989.43 2.044.645 3.165.645 1.48 0 2.79-.334 3.93-1.005a8.913 8.913 0 0 0 2.85-2.655l3.239 3.33zM484.954 351.384l-9.779 14.16v9.84h-4.71v-9.9l-9.271-14.1h5.4l6.24 10.08 6.51-10.08h5.61z"/></g></svg>